<svg width="920" height="614" viewBox="0 0 920 614" fill="none" xmlns="http://www.w3.org/2000/svg">
<path d="M214.25 553.558C166.262 527.279 128.824 480.615 118.373 426.988C107.934 373.373 126.604 313.926 168.936 279.296C196.475 256.775 231.288 245.686 263.758 231.122C296.228 216.558 328.857 196.075 343.074 163.508C352.863 141.085 352.814 115.235 363.388 93.1683C380.659 57.1511 425.494 47.0815 464.943 53.7127C521.591 63.2297 538.531 110.25 587.316 127.344C636.1 144.437 690.147 128.449 720.863 161.961C758.276 202.792 725.034 232.681 719.967 292.239C719.146 301.867 719.685 311.838 723.169 320.852C729.131 336.288 743.728 346.296 756.35 357.016C783.46 380.041 804.571 411.171 811.219 446.071C817.868 480.971 794.107 533.382 769.513 553.546H214.25V553.558Z" fill="#EBE3FF"/>
<path d="M671.392 164.122L673.698 158.743L676.004 164.122L681.377 166.431L676.004 168.739L673.698 174.118L671.392 168.739L666.019 166.431L671.392 164.122Z" fill="white"/>
<path d="M356.126 520.156L358.444 514.79L360.75 520.156L366.123 522.477L360.75 524.786L358.444 530.164L356.126 524.786L350.765 522.477L356.126 520.156Z" fill="white"/>
<path d="M469.139 87.4458L471.445 82.0671L473.751 87.4458L479.124 89.7544L473.751 92.0631L471.445 97.4417L469.139 92.0631L463.766 89.7544L469.139 87.4458Z" fill="white"/>
<path d="M698.415 269.362L699.801 266.132L701.187 269.362L704.413 270.749L701.187 272.137L699.801 275.367L698.415 272.137L695.189 270.749L698.415 269.362Z" fill="white"/>
<path d="M537.182 430.291L538.568 427.049L539.954 430.291L543.193 431.679L539.954 433.066L538.568 436.296L537.182 433.066L533.956 431.679L537.182 430.291Z" fill="white"/>
<path d="M456.921 508.515L458.307 505.285L459.693 508.515L462.932 509.915L459.693 511.302L458.307 514.532L456.921 511.302L453.695 509.915L456.921 508.515Z" fill="white"/>
<path d="M183.006 317.057L184.393 313.828L185.779 317.057L189.005 318.445L185.779 319.833L184.393 323.062L183.006 319.833L179.78 318.445L183.006 317.057Z" fill="white"/>
<path d="M419.005 77.6218C419.005 79.4515 417.521 80.9374 415.693 80.9374C413.865 80.9374 412.381 79.4515 412.381 77.6218C412.381 75.792 413.865 74.3062 415.693 74.3062C417.521 74.3062 419.005 75.792 419.005 77.6218Z" stroke="white" stroke-miterlimit="10"/>
<path d="M369.435 415.359C369.435 417.188 367.951 418.674 366.123 418.674C364.295 418.674 362.811 417.188 362.811 415.359C362.811 413.529 364.295 412.043 366.123 412.043C367.951 412.043 369.435 413.529 369.435 415.359Z" stroke="white" stroke-miterlimit="10"/>
<path d="M252.583 275.367C252.583 277.196 251.099 278.682 249.271 278.682C247.443 278.682 245.959 277.196 245.959 275.367C245.959 273.537 247.443 272.051 249.271 272.051C251.099 272.051 252.583 273.537 252.583 275.367Z" stroke="white" stroke-miterlimit="10"/>
<path d="M665.025 235.53C665.025 237.36 663.541 238.846 661.713 238.846C659.885 238.846 658.401 237.36 658.401 235.53C658.401 233.701 659.885 232.215 661.713 232.215C663.541 232.202 665.025 233.688 665.025 235.53Z" stroke="white" stroke-miterlimit="10"/>
<path d="M765.366 396.14C765.366 399.026 763.023 401.372 760.141 401.372C757.258 401.372 754.915 399.026 754.915 396.14C754.915 393.255 757.258 390.909 760.141 390.909C763.023 390.921 765.366 393.255 765.366 396.14Z" stroke="white" stroke-miterlimit="10"/>
<path d="M531.515 527.696C531.515 530.582 529.172 532.927 526.289 532.927C523.406 532.927 521.063 530.582 521.063 527.696C521.063 524.81 523.406 522.465 526.289 522.465C529.172 522.477 531.515 524.81 531.515 527.696Z" stroke="white" stroke-miterlimit="10"/>
<path d="M155.713 375.056C155.713 377.942 153.37 380.287 150.487 380.287C147.605 380.287 145.262 377.942 145.262 375.056C145.262 372.17 147.605 369.824 150.487 369.824C153.382 369.824 155.713 372.17 155.713 375.056Z" stroke="white" stroke-miterlimit="10"/>
<path d="M792.782 432.158C793.224 432.416 793.359 432.98 793.101 433.423L722.384 551.875C745.862 545.576 771.831 524.196 790.402 493.079C809.318 461.384 815.745 427.7 809.624 403.938C785.815 409.796 759.221 431.409 740.305 463.103C721.721 494.221 715.22 527.242 720.801 550.93L791.519 432.477C791.776 432.035 792.341 431.9 792.782 432.158Z" fill="#F7BADA"/>
<path d="M779.939 485.085C780.43 484.962 780.736 484.458 780.601 483.967C780.479 483.476 779.976 483.169 779.485 483.304L760.447 488.105L775.413 463.042L796.229 457.798C796.72 457.676 797.027 457.172 796.892 456.681C796.769 456.19 796.266 455.883 795.775 456.018L776.737 460.819L793.077 433.459C793.334 433.017 793.199 432.452 792.758 432.195C792.316 431.937 791.752 432.072 791.494 432.514L775.143 459.898L770.334 440.815C770.212 440.324 769.709 440.017 769.218 440.152C768.727 440.275 768.421 440.778 768.556 441.269L773.806 462.145L758.84 487.209L754.032 468.126C753.909 467.635 753.406 467.328 752.916 467.463C752.425 467.586 752.118 468.089 752.253 468.58L757.503 489.456L742.538 514.52L737.729 495.437C737.607 494.945 737.104 494.638 736.613 494.773C736.123 494.896 735.816 495.4 735.951 495.891L741.201 516.767L720.777 550.991C720.875 551.421 720.961 551.875 721.071 552.305C721.501 552.195 721.93 552.047 722.359 551.937L742.796 517.7L763.612 512.457C764.103 512.334 764.409 511.83 764.275 511.339C764.152 510.848 763.649 510.541 763.158 510.676L744.12 515.478L759.086 490.414L779.939 485.085Z" fill="#F9D2E8"/>
<path d="M649.986 431.802C649.544 432.059 649.397 432.624 649.667 433.066L719.796 551.875C696.354 545.453 670.484 523.951 652.059 492.735C633.291 460.954 627.035 427.233 633.279 403.496C657.064 409.464 683.535 431.224 702.303 463.005C720.728 494.221 727.07 527.266 721.378 550.93L651.249 432.121C650.992 431.691 650.428 431.544 649.986 431.802Z" fill="#F7BADA"/>
<path d="M662.559 484.79C662.069 484.667 661.774 484.163 661.897 483.672C662.02 483.181 662.523 482.886 663.013 483.009L682.027 487.896L667.184 462.759L646.392 457.405C645.901 457.282 645.607 456.779 645.729 456.288C645.852 455.797 646.355 455.502 646.846 455.625L665.859 460.512L649.655 433.066C649.397 432.624 649.544 432.059 649.974 431.801C650.415 431.544 650.98 431.691 651.237 432.121L667.454 459.579L672.348 440.52C672.471 440.029 672.974 439.734 673.464 439.857C673.955 439.98 674.25 440.483 674.127 440.975L668.766 461.826L683.609 486.963L688.503 467.905C688.626 467.413 689.129 467.119 689.62 467.241C690.11 467.364 690.405 467.868 690.282 468.359L684.921 489.21L699.764 514.348L704.659 495.289C704.781 494.798 705.284 494.503 705.775 494.626C706.266 494.749 706.56 495.252 706.437 495.743L701.077 516.595L721.341 550.917C721.243 551.347 721.157 551.802 721.047 552.231C720.618 552.121 720.188 551.974 719.759 551.851L699.482 517.504L678.69 512.149C678.199 512.027 677.905 511.523 678.028 511.032C678.15 510.541 678.653 510.246 679.144 510.369L698.157 515.256L683.315 490.119L662.559 484.79Z" fill="#F9D2E8"/>
<path d="M721.464 399.223C722.016 399.223 722.47 399.677 722.47 400.23L722.102 551.175C740.661 532.117 753.149 497.487 753.247 457.835C753.345 417.446 740.588 382.178 721.562 363.267C702.438 382.092 689.509 417.287 689.411 457.676C689.313 497.34 701.629 532.019 720.09 551.175L720.458 400.23C720.458 399.665 720.912 399.223 721.464 399.223Z" fill="#F7BADA"/>
<path d="M738.944 456.165C739.336 455.772 739.336 455.133 738.944 454.74C738.551 454.347 737.913 454.347 737.521 454.74L722.298 469.894L722.372 437.954L739.017 421.376C739.41 420.983 739.41 420.344 739.017 419.951C738.625 419.558 737.987 419.558 737.595 419.951L722.372 435.105L722.458 400.242C722.458 399.689 722.004 399.235 721.452 399.235C720.9 399.235 720.446 399.689 720.446 400.242L720.36 435.129L705.186 419.865C704.794 419.472 704.156 419.472 703.763 419.865C703.371 420.258 703.371 420.897 703.763 421.29L720.348 437.978L720.274 469.919L705.1 454.654C704.708 454.262 704.07 454.262 703.677 454.654C703.285 455.047 703.285 455.686 703.677 456.079L720.262 472.767L720.2 504.708L705.027 489.444C704.634 489.051 703.996 489.051 703.604 489.444C703.211 489.837 703.211 490.475 703.604 490.868L720.188 507.557L720.078 551.163C720.421 551.519 720.74 551.9 721.084 552.244C721.427 551.9 721.758 551.519 722.089 551.175L722.2 507.544L738.846 490.966C739.238 490.573 739.238 489.935 738.846 489.542C738.453 489.149 737.815 489.149 737.423 489.542L722.2 504.695L722.273 472.755L738.944 456.165Z" fill="#F9D2E8"/>
<path d="M817.352 490.34C817.573 490.696 817.475 491.163 817.132 491.384L722.175 552.44C741.679 556.382 768.494 550.181 793.445 534.143C818.849 517.811 835.814 495.461 839.972 475.801C820.382 471.404 793.028 477.569 767.623 493.901C742.673 509.939 725.892 531.785 721.366 551.175L816.322 490.119C816.653 489.898 817.119 489.996 817.352 490.34Z" fill="#F7BADA"/>
<path d="M788.673 524.466C789.078 524.552 789.483 524.294 789.568 523.889C789.654 523.484 789.397 523.079 788.992 522.993L773.291 519.566L793.383 506.648L810.557 510.393C810.962 510.479 811.366 510.221 811.452 509.816C811.538 509.411 811.28 509.006 810.876 508.92L795.174 505.494L817.107 491.384C817.463 491.163 817.561 490.696 817.328 490.34C817.107 489.984 816.641 489.886 816.285 490.107L794.34 504.216L797.763 488.474C797.848 488.068 797.591 487.663 797.186 487.577C796.781 487.491 796.377 487.749 796.291 488.154L792.549 505.371L772.456 518.289L775.879 502.546C775.965 502.141 775.707 501.736 775.302 501.65C774.898 501.564 774.493 501.822 774.407 502.227L770.666 519.444L750.573 532.362L753.995 516.619C754.081 516.214 753.823 515.809 753.419 515.723C753.014 515.637 752.609 515.895 752.523 516.3L748.782 533.517L721.354 551.163C721.268 551.519 721.157 551.875 721.084 552.231C721.439 552.305 721.807 552.366 722.163 552.428L749.616 534.781L766.789 538.527C767.194 538.613 767.599 538.355 767.685 537.95C767.771 537.544 767.513 537.139 767.108 537.053L751.407 533.627L771.5 520.709L788.673 524.466Z" fill="#F9D2E8"/>
<path d="M625.134 489.874C624.901 490.23 625.011 490.696 625.355 490.917L720.004 552.453C700.476 556.296 673.698 549.96 648.833 533.799C623.515 517.332 606.648 494.908 602.6 475.224C622.214 470.926 649.532 477.225 674.863 493.68C699.727 509.841 716.398 531.761 720.838 551.188L626.189 489.653C625.821 489.419 625.355 489.518 625.134 489.874Z" fill="#F7BADA"/>
<path d="M653.629 524.135C653.224 524.221 652.82 523.963 652.734 523.558C652.648 523.153 652.906 522.747 653.31 522.661L669.024 519.321L648.992 506.304L631.795 509.964C631.39 510.05 630.985 509.792 630.899 509.387C630.813 508.981 631.071 508.576 631.476 508.49L647.189 505.15L625.33 490.942C624.974 490.709 624.876 490.242 625.109 489.898C625.342 489.542 625.808 489.444 626.152 489.677L648.036 503.897L644.687 488.142C644.601 487.737 644.859 487.332 645.263 487.246C645.668 487.16 646.073 487.418 646.159 487.823L649.814 505.064L669.846 518.081L666.497 502.326C666.411 501.92 666.669 501.515 667.073 501.429C667.478 501.343 667.883 501.601 667.969 502.006L671.624 519.247L691.656 532.264L688.307 516.509C688.221 516.104 688.479 515.699 688.884 515.613C689.288 515.527 689.693 515.785 689.779 516.19L693.435 533.431L720.777 551.212C720.863 551.568 720.961 551.925 721.035 552.281C720.679 552.354 720.311 552.403 719.955 552.477L692.6 534.696L675.403 538.355C674.998 538.441 674.593 538.183 674.507 537.778C674.421 537.373 674.679 536.968 675.084 536.882L690.797 533.541L670.766 520.525L653.629 524.135Z" fill="#F9D2E8"/>
<path d="M270.222 432.158C270.664 432.416 270.799 432.98 270.541 433.423L199.824 551.875C223.302 545.576 249.271 524.196 267.843 493.079C286.758 461.384 293.186 427.7 287.064 403.938C263.255 409.796 236.661 431.409 217.746 463.103C199.162 494.221 192.66 527.242 198.242 550.93L268.959 432.477C269.216 432.035 269.793 431.9 270.222 432.158Z" fill="#F7BADA"/>
<path d="M257.391 485.085C257.882 484.962 258.189 484.458 258.054 483.967C257.931 483.476 257.428 483.169 256.938 483.304L237.9 488.105L252.865 463.042L273.682 457.798C274.172 457.676 274.479 457.172 274.344 456.681C274.221 456.19 273.718 455.883 273.228 456.018L254.19 460.819L270.529 433.459C270.787 433.017 270.652 432.452 270.21 432.195C269.769 431.937 269.204 432.072 268.947 432.514L252.595 459.898L247.787 440.815C247.664 440.324 247.161 440.017 246.67 440.152C246.18 440.275 245.873 440.778 246.008 441.269L251.258 462.145L236.293 487.209L231.484 468.126C231.362 467.635 230.859 467.328 230.368 467.463C229.877 467.586 229.571 468.089 229.706 468.58L234.956 489.456L219.99 514.52L215.182 495.437C215.059 494.945 214.556 494.638 214.066 494.773C213.575 494.896 213.268 495.4 213.403 495.891L218.653 516.767L198.229 550.991C198.327 551.421 198.413 551.875 198.524 552.305C198.953 552.195 199.382 552.047 199.812 551.937L220.248 517.7L241.065 512.457C241.555 512.334 241.862 511.83 241.727 511.339C241.604 510.848 241.101 510.541 240.611 510.676L221.573 515.478L236.538 490.414L257.391 485.085Z" fill="#F9D2E8"/>
<path d="M127.438 431.802C126.997 432.059 126.85 432.624 127.119 433.066L197.248 551.875C173.806 545.453 147.936 523.951 129.511 492.735C110.743 460.954 104.487 427.233 110.731 403.496C134.516 409.464 160.988 431.224 179.756 463.005C198.18 494.221 204.522 527.266 198.83 550.93L128.702 432.121C128.444 431.691 127.88 431.544 127.438 431.802Z" fill="#F7BADA"/>
<path d="M140.012 484.79C139.521 484.667 139.227 484.163 139.349 483.672C139.472 483.181 139.975 482.886 140.466 483.009L159.479 487.896L144.636 462.759L123.844 457.405C123.354 457.282 123.059 456.779 123.182 456.288C123.305 455.797 123.807 455.502 124.298 455.625L143.311 460.512L127.107 433.066C126.85 432.624 126.997 432.059 127.426 431.801C127.868 431.544 128.432 431.691 128.69 432.121L144.906 459.579L149.801 440.52C149.923 440.029 150.426 439.734 150.917 439.857C151.407 439.98 151.702 440.483 151.579 440.975L146.219 461.826L161.061 486.963L165.956 467.905C166.078 467.413 166.581 467.119 167.072 467.241C167.563 467.364 167.857 467.868 167.734 468.359L162.374 489.21L177.217 514.348L182.111 495.289C182.234 494.798 182.737 494.503 183.227 494.626C183.718 494.749 184.012 495.252 183.89 495.743L178.529 516.595L198.794 550.917C198.695 551.347 198.61 551.802 198.499 552.231C198.07 552.121 197.641 551.974 197.211 551.851L176.934 517.504L156.142 512.149C155.652 512.027 155.357 511.523 155.48 511.032C155.603 510.541 156.106 510.246 156.596 510.369L175.61 515.256L160.767 490.119L140.012 484.79Z" fill="#F9D2E8"/>
<path d="M198.916 399.223C199.468 399.223 199.922 399.677 199.922 400.23L199.554 551.175C218.114 532.117 230.601 497.487 230.699 457.835C230.797 417.446 218.04 382.178 199.014 363.267C179.891 382.092 166.962 417.287 166.863 457.676C166.765 497.34 179.081 532.019 197.542 551.175L197.91 400.23C197.91 399.665 198.352 399.223 198.916 399.223Z" fill="#F7BADA"/>
<path d="M216.384 456.165C216.777 455.772 216.777 455.133 216.384 454.74C215.991 454.347 215.354 454.347 214.961 454.74L199.738 469.894L199.812 437.954L216.458 421.376C216.85 420.983 216.85 420.344 216.458 419.951C216.065 419.558 215.427 419.558 215.035 419.951L199.812 435.105L199.898 400.242C199.898 399.689 199.444 399.235 198.892 399.235C198.34 399.235 197.886 399.689 197.886 400.242L197.8 435.129L182.626 419.865C182.234 419.472 181.596 419.472 181.203 419.865C180.811 420.258 180.811 420.897 181.203 421.29L197.788 437.978L197.714 469.919L182.54 454.654C182.148 454.262 181.51 454.262 181.117 454.654C180.725 455.047 180.725 455.686 181.117 456.079L197.702 472.767L197.641 504.708L182.467 489.444C182.074 489.051 181.436 489.051 181.044 489.444C180.651 489.837 180.651 490.475 181.044 490.868L197.628 507.557L197.518 551.163C197.861 551.519 198.18 551.9 198.524 552.244C198.867 551.9 199.198 551.519 199.53 551.175L199.64 507.544L216.286 490.966C216.678 490.573 216.678 489.935 216.286 489.542C215.893 489.149 215.255 489.149 214.863 489.542L199.64 504.695L199.714 472.755L216.384 456.165Z" fill="#F9D2E8"/>
<path d="M294.793 490.34C295.013 490.696 294.915 491.163 294.559 491.384L199.603 552.44C219.107 556.382 245.922 550.181 270.873 534.143C296.277 517.811 313.242 495.461 317.4 475.801C297.81 471.404 270.455 477.569 245.051 493.901C220.101 509.939 203.32 531.785 198.794 551.175L293.75 490.119C294.106 489.898 294.572 489.996 294.793 490.34Z" fill="#F7BADA"/>
<path d="M266.125 524.466C266.53 524.552 266.935 524.294 267.021 523.889C267.107 523.484 266.849 523.079 266.444 522.993L250.743 519.566L270.836 506.648L288.009 510.393C288.414 510.479 288.819 510.221 288.905 509.816C288.99 509.411 288.733 509.006 288.328 508.92L272.627 505.494L294.559 491.384C294.915 491.163 295.013 490.696 294.793 490.34C294.572 489.984 294.106 489.886 293.75 490.107L271.805 504.216L275.227 488.474C275.313 488.068 275.055 487.663 274.651 487.577C274.246 487.491 273.841 487.749 273.755 488.154L270.014 505.371L249.921 518.289L253.343 502.546C253.429 502.141 253.172 501.736 252.767 501.65C252.362 501.564 251.957 501.822 251.871 502.227L248.13 519.444L228.037 532.362L231.46 516.619C231.546 516.214 231.288 515.809 230.883 515.723C230.478 515.637 230.074 515.895 229.988 516.3L226.246 533.517L198.818 551.163C198.732 551.519 198.622 551.875 198.548 552.231C198.904 552.305 199.272 552.366 199.628 552.428L227.081 534.781L244.254 538.527C244.659 538.613 245.063 538.355 245.149 537.95C245.235 537.544 244.978 537.139 244.573 537.053L228.871 533.627L248.964 520.709L266.125 524.466Z" fill="#F9D2E8"/>
<path d="M102.586 489.874C102.353 490.23 102.463 490.696 102.807 490.917L197.457 552.453C177.928 556.296 151.15 549.96 126.285 533.799C100.967 517.332 84.1002 494.908 80.0522 475.224C99.6666 470.926 126.985 477.225 152.315 493.68C177.18 509.841 193.85 531.761 198.291 551.188L103.641 489.653C103.273 489.419 102.807 489.518 102.586 489.874Z" fill="#F7BADA"/>
<path d="M131.082 524.135C130.677 524.221 130.272 523.963 130.186 523.558C130.1 523.153 130.358 522.747 130.763 522.661L146.476 519.321L126.445 506.304L109.247 509.964C108.842 510.05 108.437 509.792 108.351 509.387C108.266 508.981 108.523 508.576 108.928 508.49L124.642 505.15L102.782 490.942C102.427 490.709 102.329 490.242 102.562 489.898C102.795 489.554 103.261 489.444 103.604 489.677L125.488 503.897L122.139 488.142C122.053 487.737 122.311 487.332 122.716 487.246C123.121 487.16 123.525 487.418 123.611 487.823L127.267 505.064L147.298 518.081L143.949 502.326C143.863 501.92 144.121 501.515 144.526 501.429C144.931 501.343 145.335 501.601 145.421 502.006L149.077 519.247L169.108 532.264L165.759 516.509C165.674 516.104 165.931 515.699 166.336 515.613C166.741 515.527 167.146 515.785 167.231 516.19L170.887 533.431L198.229 551.212C198.315 551.568 198.413 551.925 198.487 552.281C198.131 552.354 197.763 552.403 197.407 552.477L170.053 534.696L152.855 538.355C152.45 538.441 152.045 538.183 151.959 537.778C151.874 537.373 152.131 536.968 152.536 536.882L168.25 533.541L148.218 520.525L131.082 524.135Z" fill="#F9D2E8"/>
<path d="M452.8 488.83C543.458 488.83 616.952 481.529 616.952 472.522C616.952 463.515 543.458 456.214 452.8 456.214C362.141 456.214 288.647 463.515 288.647 472.522C288.647 481.529 362.141 488.83 452.8 488.83Z" fill="#D4CBF4"/>
<path d="M516.451 476.869H394.386L412.712 323.394H498.125L516.451 476.869Z" fill="#9AB0B5"/>
<path d="M519.003 470.336H391.822C389.786 470.336 388.142 471.982 388.142 474.02V476.869H522.683V474.02C522.683 471.982 521.039 470.336 519.003 470.336Z" fill="#BEDDED"/>
<path d="M623.49 390.921H287.334C275.963 390.921 266.751 381.699 266.751 370.316V161.47C266.751 150.086 275.963 140.864 287.334 140.864H623.49C634.861 140.864 644.074 150.086 644.074 161.47V370.316C644.074 381.687 634.861 390.921 623.49 390.921Z" fill="#6D8899"/>
<path d="M626.9 158.056H283.937V341.912H626.9V158.056Z" fill="white"/>
<path d="M266.751 359.104V370.303C266.751 381.687 275.963 390.909 287.334 390.909H623.49C634.861 390.909 644.074 381.687 644.074 370.303V359.104H266.751Z" fill="#BEDDED"/>
<path d="M451.769 97.9207H306.924V249.984H451.769V97.9207Z" fill="#E9F9FF"/>
<path d="M451.769 257.671H306.924V341.912H451.769V257.671Z" fill="#E9F9FF"/>
<path d="M437.331 109.894H321.362V118.698H437.331V109.894Z" fill="#D1E6ED"/>
<path d="M431.983 122.137H326.698V126.828H431.983V122.137Z" fill="#D1E6ED"/>
<path d="M437.319 141.809H360.652V144.683H437.319V141.809Z" fill="#D1E6ED"/>
<path d="M437.319 172.092H360.652V174.965H437.319V172.092Z" fill="#D1E6ED"/>
<path d="M437.319 151.904H360.652V154.777H437.319V151.904Z" fill="#D1E6ED"/>
<path d="M437.319 161.998H360.652V164.871H437.319V161.998Z" fill="#D1E6ED"/>
<path d="M437.331 202.374H321.362V205.248H437.331V202.374Z" fill="#D1E6ED"/>
<path d="M437.331 182.186H321.362V185.06H437.331V182.186Z" fill="#D1E6ED"/>
<path d="M437.331 192.28H321.362V195.154H437.331V192.28Z" fill="#D1E6ED"/>
<path d="M437.331 222.563H321.362V225.436H437.331V222.563Z" fill="#D1E6ED"/>
<path d="M437.331 212.469H321.362V215.342H437.331V212.469Z" fill="#D1E6ED"/>
<path d="M437.331 232.657H321.362V235.53H437.331V232.657Z" fill="#D1E6ED"/>
<path d="M392.141 288.875H321.362V291.748H392.141V288.875Z" fill="#D1E6ED"/>
<path d="M392.141 278.781H321.362V281.654H392.141V278.781Z" fill="#D1E6ED"/>
<path d="M392.141 298.969H321.362V301.842H392.141V298.969Z" fill="#D1E6ED"/>
<path d="M438.631 316.627H321.362V329.104H438.631V316.627Z" fill="#D1E6ED"/>
<path d="M354.347 141.944H321.362V174.965H354.347V141.944Z" fill="#D1E6ED"/>
<path d="M438.391 293.494C440.154 282.677 432.823 272.477 422.017 270.713C411.212 268.948 401.023 276.287 399.261 287.104C397.498 297.921 404.829 308.121 415.634 309.886C426.44 311.65 436.628 304.311 438.391 293.494Z" fill="#D1E6ED"/>
<path d="M492.543 143.823C492.543 143.823 473.481 99.161 519.947 113.922C558.587 126.189 540.702 159.394 533.968 161.04L492.543 143.823Z" fill="#2E486D"/>
<path d="M586.494 380.373C586.494 380.373 584.752 386.955 583.108 396.865C582.753 398.67 594.075 400.868 599.251 397.455C601.692 395.33 602.526 387.311 602.625 384.745C602.772 380.987 601.643 371.261 601.643 371.261C601.643 371.261 597.46 365.367 591.29 368.695C591.29 368.695 580.471 375.78 580.066 378.863C579.612 382.35 576.558 386.648 577.748 387.274C579.698 388.294 584.531 385.518 586.494 380.373Z" fill="#FFC6BB"/>
<path d="M377.47 205.051C377.47 205.051 371.226 194.626 368.932 192.833C365.534 190.168 352.851 183.021 351.477 183.991C350.888 184.409 350.692 185.71 351.06 186.386C351.428 187.061 359.916 194.196 359.916 194.196C359.916 194.196 355.942 195.056 354.985 196.983C354.286 198.408 355.856 206.758 356.899 208.404C358.138 210.356 368.221 211.965 368.221 211.965L370.613 212.591C370.625 212.604 374.035 211.965 377.47 205.051Z" fill="#FFC6BB"/>
<path d="M610.72 280.88C608.279 265.432 588.248 204.057 577.6 197.524C566.732 190.856 542.591 190.659 524.866 188.989C507.398 187.344 479.774 190.929 471.457 194.687C460.245 199.734 426.635 238.821 420.918 239.362C414.258 239.816 396.262 219.898 377.47 205.051L368.233 211.977C368.233 211.977 411.13 271.511 422.059 270.909C427.996 270.59 453.83 253.999 466.428 246.067C463.999 282.207 458.675 352.645 458.675 352.645C522.069 367.811 579.612 352.645 579.612 352.645C577.637 300.369 576.999 259.44 576.999 259.44C576.999 259.44 582.74 279.972 584.249 288.027C586.506 300.148 589.094 370.193 589.094 370.193L601.643 371.249C606.66 351.503 612.033 289.169 610.72 280.88Z" fill="#FFC6BB"/>
<path d="M610.721 280.88C608.279 265.432 588.248 204.057 577.601 197.524C566.732 190.856 542.591 190.659 524.866 188.989C507.398 187.344 479.774 190.929 471.457 194.687C460.245 199.734 426.635 238.821 420.918 239.362C417.901 239.57 412.565 235.592 405.892 229.82L393.208 244.274C404.702 258.15 416.919 271.179 422.059 270.897C427.996 270.565 453.83 253.987 466.428 246.054C463.999 282.194 458.675 352.632 458.675 352.632C522.069 367.798 579.612 352.632 579.612 352.632C577.637 300.356 576.999 259.427 576.999 259.427C576.999 259.427 582.74 279.959 584.249 288.015C585.243 293.357 586.298 309.959 587.181 326.857L607.924 328.33C610.107 306.889 611.444 285.498 610.721 280.88Z" fill="#FF7676"/>
<path d="M390.154 245.747L395.968 250.942L410.872 231.638L406.787 227.119L390.154 245.747Z" fill="#D17366"/>
<path d="M585.512 324.266L584.887 332.027L609.261 332.235L610.389 326.243L585.512 324.266Z" fill="#D17366"/>
<path d="M529.65 189.419L528.657 162.673H508.024L507.803 188.952L511.998 200.569C513.802 205.579 520.683 206.083 523.198 201.392L529.65 189.419Z" fill="#F4ABA4"/>
<path d="M492.543 143.823C492.543 143.823 497.511 177.434 503.816 178.146C522.229 180.221 534.495 156.631 534.495 156.631C534.495 156.631 538.126 155.796 539.942 149.656C541.389 144.793 538.114 141.527 535.526 146.23C535.526 146.23 534.275 146.5 533.073 145.371C533.073 145.371 533.993 138.518 532.803 134.319C531.601 130.119 502.749 147.09 493.647 133.434C493.635 133.41 491.93 136.934 492.543 143.823Z" fill="#FFC6BB"/>
<path d="M404.726 537.753C400.212 539.178 394.471 544.151 394.471 544.151C395.22 550.881 398.311 553.423 398.311 553.423C398.311 553.423 437.871 533.64 436.902 533.32L404.726 537.753Z" fill="#99A6C9"/>
<path d="M247.075 331.978L249.43 306.263L265.119 309.665L265.303 331.585L264.334 334.286C261.857 341.163 252.399 341.863 248.94 335.428L247.075 331.978Z" fill="#FFC6BB"/>
<path d="M288.549 403.693C288.549 403.693 333.212 413.652 349.735 427.369C363.547 438.838 396.986 516.558 404.739 537.754L394.484 544.151C394.484 544.151 356.923 471.933 333.089 452.359C306.421 430.439 260.887 420.48 224.247 414.598L288.549 403.693Z" fill="#253B56"/>
<path d="M324.441 542.383C319.78 541.573 312.395 543.378 312.395 543.378C309.979 549.714 311.586 553.386 311.586 553.386C311.586 553.386 355.795 553.902 355.083 553.177L324.441 542.383Z" fill="#99A6C9"/>
<path d="M224.235 414.61C224.235 414.61 225.069 427.491 233.827 433.68C253.638 447.692 310.666 435.866 319.817 448.343C326.49 457.43 312.395 543.366 312.395 543.366L325.153 542.616C325.153 542.616 357.156 448.38 348.128 428.732C340.547 412.24 288.549 403.68 288.549 403.68L224.235 414.61Z" fill="#2E486D"/>
<path d="M279.987 343.938L288.537 403.693C251.945 412.24 224.222 414.622 224.222 414.622C221.99 386.378 227.105 359.62 229.951 342.502C232.662 326.255 246.315 315.584 262.347 319.268C262.789 319.366 263.218 319.477 263.623 319.587C273.755 322.313 279.324 333.464 279.987 343.938Z" fill="#567BEF"/>
<path d="M277.227 285.952C277.484 291.134 278.024 298.908 275.755 305.453C274.307 309.628 265.782 313.042 264.175 313.447C260.887 314.27 258.115 302.199 258.679 293.946C259.244 285.707 277.227 285.952 277.227 285.952Z" fill="#FFC6BB"/>
<path d="M265.291 378.715L323.914 386.317L327.594 380.876L272.725 361.314L265.291 378.715Z" fill="#567BEF"/>
<path d="M275.46 382.424L320.037 341.47L314.395 336.718L266.432 365.785L275.46 382.424Z" fill="#567BEF"/>
<path d="M279.226 269.816C270.848 258.985 262.961 273.107 261.489 273.242C253.662 273.967 244.377 275.993 243.064 281.666C239.421 297.458 245.039 311.679 257.588 311.838C265.905 311.937 266.996 308.412 267.524 303.427C267.524 303.427 265.451 304.704 263.917 299.571C262.715 295.518 265.929 294.118 267.156 296.709C267.156 296.709 268.198 296.93 269.204 295.985C269.204 295.985 268.763 292.325 272.001 290.557C280.416 285.952 283.127 274.863 279.226 269.816Z" fill="#FF7676"/>
<path d="M206.84 552.514H204.289L223.977 461.409C224.688 458.142 226.308 455.171 228.663 452.813L235.728 445.74L237.483 447.496L230.417 454.569C228.393 456.583 227.007 459.137 226.406 461.925L206.84 552.514Z" fill="#EBFFFF"/>
<path d="M328.317 552.514L308.752 461.937C308.151 459.137 306.765 456.595 304.741 454.581L297.675 447.508L299.429 445.752L306.495 452.825C308.85 455.183 310.469 458.155 311.181 461.421L330.881 552.526H328.317V552.514Z" fill="#EBFFFF"/>
<path d="M263.623 327.925C264.445 332.42 266.432 340.672 268.996 350.054C269.572 352.117 270.137 354.131 270.664 356.046C271.241 358.048 271.805 359.939 272.308 361.695C273.485 362.076 274.614 362.444 275.681 362.8C276.675 363.107 277.607 363.402 278.49 363.672C280.244 364.213 281.765 364.642 282.992 364.974C281.827 364.446 280.379 363.82 278.674 363.132C277.043 362.481 275.178 361.744 273.13 360.922L273.117 360.848L273.044 360.529L272.884 359.878C272.774 359.436 272.663 358.994 272.541 358.539C272.308 357.631 272.062 356.697 271.817 355.727C271.302 353.811 270.774 351.798 270.21 349.722C267.671 340.328 265.193 332.211 263.623 327.925Z" fill="#95B0F4"/>
<path d="M239.936 330.615C241.972 338.326 246.192 352.547 251.307 368.768C252.252 371.752 253.184 374.663 254.043 377.364C257.49 377.843 260.802 378.298 263.93 378.728C266.935 379.12 269.781 379.489 272.406 379.833C277.656 380.496 282.072 380.999 285.347 381.319C282.121 380.692 277.754 379.906 272.528 379.035C269.916 378.605 267.094 378.15 264.089 377.659C261.206 377.217 258.164 376.738 254.999 376.247C254.227 373.766 253.392 371.102 252.534 368.376C247.406 352.154 242.696 338.093 239.936 330.615Z" fill="#95B0F4"/>
<path d="M319.068 330.16C319.068 330.16 322.981 327.557 326.122 322.313C326.98 321.503 332.132 326.587 332.046 330.541C331.727 332.579 328.452 336.62 327.103 337.541C325.128 338.904 320.025 341.458 320.025 341.458C320.025 341.458 314.689 341.188 314.395 336.718C314.395 336.718 314.53 328.453 316.063 327.188C317.792 325.764 319.068 322.645 319.816 323.075C321.031 323.799 321.19 327.348 319.068 330.16Z" fill="#FFC6BB"/>
<path d="M327.594 380.876C327.594 380.876 335.837 379.28 339.799 382.424C343.663 385.494 344.558 388.858 344.558 388.858H327.594L323.901 386.317C323.914 386.317 322.577 383.308 327.594 380.876Z" fill="#FFC6BB"/>
<path d="M229.338 439.759L212.25 328.809C211.526 324.094 207.11 320.852 202.4 321.576L221.916 448.306V448.392H313.229C313.229 443.615 309.365 439.747 304.594 439.747H229.338V439.759Z" fill="#6D8899"/>
<path d="M664.424 331.977L662.069 306.263L646.38 309.665L646.196 331.585L647.165 334.286C649.643 341.163 659.1 341.863 662.559 335.428L664.424 331.977Z" fill="#FFC6BB"/>
<path d="M647.876 327.925C646.183 332.186 643.62 340.266 641.068 349.661C640.516 351.736 639.989 353.75 639.474 355.678C639.228 356.636 638.995 357.581 638.762 358.49C638.652 358.944 638.541 359.399 638.431 359.841C638.333 360.258 638.186 360.848 638.21 360.799L638.124 360.848L637.744 360.995C637.486 361.093 637.229 361.204 636.971 361.302C636.468 361.511 635.965 361.707 635.487 361.904C634.53 362.309 633.622 362.69 632.776 363.034C631.083 363.758 629.648 364.409 628.495 364.974C629.734 364.679 631.267 364.274 633.034 363.77C633.917 363.512 634.861 363.23 635.855 362.935C636.358 362.776 636.861 362.628 637.388 362.456C637.646 362.37 637.916 362.284 638.186 362.211C638.566 362.088 638.946 361.965 639.326 361.83C639.854 360.049 640.43 358.122 641.031 356.108C641.571 354.192 642.135 352.19 642.712 350.115C645.276 340.721 647.165 332.444 647.876 327.925Z" fill="#A4B9BA"/>
<path d="M671.563 330.615C668.681 338.056 663.884 352.092 658.757 368.326C657.923 371.016 657.101 373.631 656.34 376.075C653.212 376.566 650.219 377.045 647.386 377.5C644.393 378.003 641.571 378.47 638.958 378.912C633.733 379.82 629.366 380.643 626.152 381.319C629.427 381.048 633.843 380.594 639.106 379.968C641.731 379.636 644.576 379.28 647.582 378.912C650.747 378.482 654.108 378.028 657.591 377.561C658.475 374.81 659.407 371.863 660.376 368.842C665.516 352.608 669.662 338.363 671.563 330.615Z" fill="#A4B9BA"/>
<path d="M403.438 383.799H358.444V388.858H403.438V383.799Z" fill="#FF7676"/>
<path d="M538.568 383.799H493.574V388.858H538.568V383.799Z" fill="#FFC6BB"/>
<path d="M529.454 378.838H484.46V383.897H529.454V378.838Z" fill="#916AAA"/>
<path d="M420.207 376.468H411.559V388.859H420.207V376.468Z" fill="#567BEF"/>
<path d="M456.541 368.842H440.018V388.858H456.541V368.842Z" fill="#FFE4AE"/>
<path d="M453.904 385.518L453.425 384.364L458.32 382.35C460.859 381.306 462.564 378.445 462.564 375.24V373.643C462.564 372.698 461.95 371.937 461.202 371.937H452.787V370.696H461.202C462.637 370.696 463.803 372.023 463.803 373.643V375.24C463.803 378.948 461.791 382.264 458.786 383.504L453.904 385.518Z" fill="#FFE4AE"/>
<path d="M597.473 543.378C597.473 543.378 590.088 541.573 585.427 542.383L559.274 551.593C558.403 551.9 558.624 553.189 559.544 553.202L591.916 553.361L594.406 549.248L595.657 553.374L598.282 553.386L597.473 543.378Z" fill="#99A6C9"/>
<path d="M687.265 414.61C687.265 414.61 686.43 427.491 677.672 433.681C657.861 447.692 608.071 432.416 597.215 443.443C589.278 451.499 597.473 543.366 597.473 543.366L584.715 542.616C584.715 542.616 558.722 444.499 566.315 428.977C573.798 413.676 629.967 406.714 629.967 406.714L687.265 414.61Z" fill="#FFC6BB"/>
<path d="M629.979 406.714C629.979 406.714 573.798 413.676 566.327 428.977C561.629 438.592 569.799 479.853 576.717 509.902L594.995 508.503C593.461 481.585 592.59 448.171 597.227 443.443C608.083 432.403 657.861 447.68 677.684 433.68C686.443 427.491 687.277 414.61 687.277 414.61L629.979 406.714Z" fill="#CFCED6"/>
<path d="M565.039 543.378C565.039 543.378 557.655 541.573 552.994 542.383L526.841 551.593C525.97 551.9 526.191 553.189 527.111 553.202L559.483 553.361L561.973 549.248L563.224 553.374L565.849 553.386L565.039 543.378Z" fill="#99A6C9"/>
<path d="M687.265 414.61C687.265 414.61 686.43 427.491 677.672 433.68C657.861 447.692 602.281 434.847 593.118 447.323C586.445 456.411 565.039 543.378 565.039 543.378L552.282 542.629C552.282 542.629 558.747 451.315 568.511 428.425C575.638 411.724 629.967 406.726 629.967 406.726L687.265 414.61Z" fill="#FFC6BB"/>
<path d="M655.31 371.716L612.941 382.129L609.261 376.677L648.122 357.532L655.31 371.716Z" fill="#1C2C3F"/>
<path d="M609.261 376.677C609.261 376.677 601.018 375.08 597.056 378.224C593.192 381.294 592.296 384.659 592.296 384.659H609.261L612.953 382.117C612.941 382.129 614.278 379.121 609.261 376.677Z" fill="#D8A29A"/>
<path d="M634.027 355.96L629.979 406.714C666.571 415.26 687.277 414.61 687.277 414.61C689.509 386.366 684.394 359.607 681.548 342.489C678.837 326.243 670.373 315.891 654.341 319.575C653.899 319.673 653.409 319.636 653.065 319.894C646.208 325.002 622.251 345.854 634.027 355.96Z" fill="#2E486D"/>
<path d="M634.273 285.952C634.015 291.134 633.868 298.379 636.579 304.74C639.793 312.268 646.269 311.494 647.876 311.9C651.164 312.722 653.396 302.186 652.82 293.946C652.243 285.706 634.273 285.952 634.273 285.952Z" fill="#FFC6BB"/>
<path d="M704.659 552.514H707.21L687.522 461.409C686.811 458.142 685.191 455.17 682.836 452.813L675.771 445.739L674.016 447.495L681.082 454.569C683.106 456.582 684.492 459.137 685.093 461.924L704.659 552.514Z" fill="#EBFFFF"/>
<path d="M583.182 552.514L602.747 461.937C603.348 459.137 604.734 456.595 606.758 454.581L613.824 447.508L612.07 445.752L605.004 452.825C602.649 455.183 601.03 458.155 600.318 461.421L580.618 552.526H583.182V552.514Z" fill="#EBFFFF"/>
<path d="M566.07 384.671H608.966C611.248 384.671 613.1 386.525 613.1 388.809V388.871H566.07V384.671Z" fill="#FAF8FF"/>
<path d="M566.07 388.858L545.67 352.473C544.75 350.839 545.94 348.813 547.805 348.813L570.253 388.858H566.07Z" fill="#FAF8FF"/>
<path d="M634.273 285.952C631.255 278.621 638.578 264.155 656.451 266.255C674.336 268.355 666.975 280.721 673.109 285.952C679.242 291.183 683.425 289.796 687.044 296.23C692.956 306.718 680.788 310.745 693.3 318.826C700.93 323.75 695.262 332.849 700.746 339.874C709.075 350.533 693.582 365.87 678.874 357.532C670.79 352.952 673.06 345.621 669.478 335.047C665.896 324.474 655.285 333.476 655.285 316.001C655.285 306.251 645.865 311.384 644.797 302.677C644.797 302.677 646.711 302.935 647.557 299.546C648.576 295.432 645.546 294.094 644.319 296.685C644.344 296.697 637.511 293.811 634.273 285.952Z" fill="#916AAA"/>
<path d="M647.533 378.617L601.974 382.129L598.294 376.677L642.283 359.927L647.533 378.617Z" fill="#2E486D"/>
<path d="M598.294 376.677C598.294 376.677 590.051 375.08 586.089 378.224C582.225 381.294 581.33 384.659 581.33 384.659H598.294L601.987 382.117C601.974 382.129 603.311 379.12 598.294 376.677Z" fill="#FFC6BB"/>
<path d="M671.563 337.933C668.337 343.545 662.731 354.192 656.561 366.546C655.531 368.633 654.525 370.66 653.544 372.624C652.636 374.491 651.765 376.284 650.943 377.978C649.005 378.163 647.165 378.335 645.411 378.507C643.571 378.691 641.829 378.875 640.21 379.035C636.983 379.378 634.248 379.698 632.114 379.992C634.26 379.956 637.008 379.857 640.259 379.698C641.878 379.612 643.62 379.526 645.472 379.428C647.422 379.305 649.483 379.182 651.642 379.047C652.587 377.193 653.593 375.228 654.647 373.177C655.629 371.224 656.647 369.198 657.702 367.123C663.884 354.769 669.024 343.889 671.563 337.933Z" fill="#5B7DA5"/>
<path d="M650.587 329.116C649.14 332.997 646.895 340.34 644.601 348.838C644.074 350.827 643.571 352.755 643.092 354.585C642.859 355.506 642.638 356.402 642.418 357.262C642.307 357.692 642.209 358.122 642.099 358.539L641.952 359.165L641.878 359.46L641.866 359.534C640.161 360.271 638.615 360.946 637.241 361.548C635.818 362.186 634.592 362.763 633.598 363.255C634.653 362.96 635.953 362.555 637.437 362.076C638.186 361.83 638.971 361.56 639.805 361.278C640.713 360.958 641.669 360.627 642.675 360.271C643.166 358.6 643.693 356.795 644.245 354.892C644.748 353.062 645.288 351.147 645.828 349.157C648.146 340.672 649.888 333.205 650.587 329.116Z" fill="#5B7DA5"/>
<path d="M629.979 406.714C629.979 406.714 575.65 411.712 568.523 428.412C562.623 442.24 557.937 481.008 555.14 509.559L572.939 512.432C579.747 486.484 589.107 452.788 593.118 447.311C602.281 434.835 657.861 447.68 677.672 433.668C686.43 427.479 687.265 414.597 687.265 414.597L629.979 406.714Z" fill="#FAF8FF"/>
<path d="M682.162 439.759L699.249 328.809C699.973 324.094 704.389 320.852 709.099 321.576L689.583 448.306V448.392H598.27C598.27 443.615 602.134 439.747 606.906 439.747H682.162V439.759Z" fill="#6D8899"/>
<path d="M622.435 66.5208C608.697 52.7672 586.408 52.7672 572.669 66.5208C561.409 77.7938 559.385 94.8016 566.573 108.15L564.414 114.29L558.808 130.229L574.73 124.617L580.863 122.456C594.197 129.652 611.187 127.626 622.447 116.353C636.186 102.587 636.186 80.2866 622.435 66.5208Z" fill="#812883"/>
<path d="M584.188 90.6756C584.188 93.3281 582.041 95.4893 579.379 95.4893C576.73 95.4893 574.571 93.3403 574.571 90.6756C574.571 88.0108 576.717 85.8618 579.379 85.8618C582.029 85.8618 584.188 88.0231 584.188 90.6756Z" fill="white"/>
<path d="M602.845 90.6756C602.845 93.3281 600.699 95.4893 598.037 95.4893C595.387 95.4893 593.228 93.3403 593.228 90.6756C593.228 88.0108 595.375 85.8618 598.037 85.8618C600.699 85.8618 602.845 88.0231 602.845 90.6756Z" fill="white"/>
<path d="M621.503 90.6756C621.503 93.3281 619.356 95.4893 616.694 95.4893C614.033 95.4893 611.886 93.3403 611.886 90.6756C611.886 88.0108 614.033 85.8618 616.694 85.8618C619.356 85.8618 621.503 88.0231 621.503 90.6756Z" fill="white"/>
<path d="M625.968 552.01H622.018V438.556C622.018 430.205 618.767 422.346 612.867 416.439L588.113 391.658L590.91 388.858L615.664 413.639C622.313 420.295 625.968 429.137 625.968 438.543V552.01Z" fill="#BEDDED"/>
<path d="M301.564 552.011H305.514V438.556C305.514 430.205 308.764 422.346 314.665 416.44L339.419 391.658L336.622 388.859L311.868 413.64C305.219 420.295 301.564 429.137 301.564 438.544V552.011Z" fill="#BEDDED"/>
<path d="M622.214 396.386H305.317C303.244 396.386 301.551 394.704 301.551 392.616C301.551 390.541 303.232 388.846 305.317 388.846H622.202C624.275 388.846 625.968 390.529 625.968 392.616C625.968 394.704 624.287 396.386 622.214 396.386Z" fill="#6D8899"/>
</svg>
